# xmcd
# 
# Track frame offsets:
#     150
#     17470
#     41680
#     59687
#     77890
#     92702
#     111152
#     126277
#     150435
#     176772
#     197517
#     215852
# 
# Disc length: 3155
# 
# Revision: 1
# Processed by: cddbd v1.5.2PL0 Copyright (c) Steve Scherf et al.
# Submitted via: fre:ac v1.0.17
# 
DISCID=a40c510c
DTITLE=Anita Carmichael - Today
DYEAR=1997
DGENRE=Jazz
TTITLE0=I find love
TTITLE1=Funky Baps
TTITLE2=Jamie
TTITLE3=You're on my mind
TTITLE4=Tea and toast
TTITLE5=Changes
TTITLE6=Skip hop
TTITLE7=All of me
TTITLE8=Moondance
TTITLE9=Magic
TTITLE10=Traffic jam
TTITLE11=Faithfully
EXTD=
EXTT0=
EXTT1=
EXTT2=
EXTT3=
EXTT4=
EXTT5=
EXTT6=
EXTT7=
EXTT8=
EXTT9=
EXTT10=
EXTT11=
PLAYORDER=
